<?xml version="1.0" standalone="no"?>
<!DOCTYPE svg PUBLIC "-//W3C//DTD SVG 20010904//EN"
 "http://www.w3.org/TR/2001/REC-SVG-20010904/DTD/svg10.dtd">
<svg version="1.0" xmlns="http://www.w3.org/2000/svg"
 width="1800.000000pt" height="513.000000pt" viewBox="0 0 1800.000000 513.000000"
 preserveAspectRatio="xMidYMid meet">
<metadata>
Created by potrace 1.16, written by Peter Selinger 2001-2019
</metadata>
<g transform="translate(0.000000,513.000000) scale(0.100000,-0.100000)"
fill="#000000" stroke="none">
<path d="M2375 5119 c-894 -73 -1676 -595 -2078 -1387 -191 -374 -279 -742
-280 -1162 0 -202 12 -320 49 -508 178 -884 815 -1613 1666 -1908 421 -145
839 -179 1282 -104 124 21 154 38 175 97 17 49 10 83 -28 126 -26 29 -35 32
-83 32 -29 0 -100 -8 -158 -18 -58 -10 -182 -21 -275 -24 -1300 -44 -2385
1005 -2385 2307 0 1273 1038 2310 2312 2310 497 0 973 -159 1384 -462 117 -86
422 -384 408 -398 -5 -4 -63 -13 -129 -19 -66 -7 -134 -17 -152 -22 -102 -32
-113 -178 -17 -224 37 -17 46 -17 333 15 163 17 304 36 313 41 10 5 23 19 30
32 6 12 26 153 44 312 36 325 35 342 -25 382 -59 40 -139 24 -174 -36 -8 -14
-20 -71 -26 -126 -6 -55 -14 -115 -17 -132 l-5 -33 -127 132 c-451 465 -1015
729 -1662 778 -151 11 -229 11 -375 -1z"/>
<path d="M8210 4620 c-19 -5 -75 -12 -123 -16 -56 -4 -94 -12 -103 -21 -26
-26 1 -42 78 -45 54 -2 73 -7 82 -20 8 -14 -10 -182 -73 -690 -84 -673 -94
-793 -72 -861 15 -44 54 -77 90 -77 77 0 211 108 269 217 56 105 31 147 -31
51 -56 -88 -129 -141 -172 -124 -39 15 -38 30 58 811 52 418 92 766 89 773 -5
13 -39 14 -92 2z"/>
<path d="M8780 4620 c-19 -5 -75 -12 -123 -16 -56 -4 -94 -12 -103 -21 -26
-26 1 -42 78 -45 54 -2 73 -7 82 -20 8 -14 -10 -182 -73 -690 -84 -673 -94
-793 -72 -861 15 -44 54 -77 90 -77 77 0 211 108 269 217 56 105 31 147 -31
51 -56 -88 -129 -141 -172 -124 -39 15 -38 30 58 811 52 418 92 766 89 773 -5
13 -39 14 -92 2z"/>
<path d="M16795 4624 c-6 -2 -64 -10 -129 -17 -94 -10 -121 -16 -130 -30 -16
-26 7 -37 81 -37 71 0 95 -16 88 -58 -3 -15 -46 -360 -95 -767 -50 -407 -92
-752 -95 -767 -7 -42 19 -61 73 -55 24 3 48 9 53 14 6 6 27 147 48 314 23 181
46 322 56 349 60 152 228 250 335 195 56 -29 60 -90 30 -513 -15 -214 6 -323
67 -351 87 -40 229 53 298 194 47 95 19 122 -43 40 -63 -84 -130 -116 -166
-80 -29 29 -30 86 -6 305 36 332 31 400 -37 479 -86 101 -244 71 -402 -75 -47
-43 -71 -60 -71 -49 0 9 25 214 55 456 31 242 53 445 50 450 -6 9 -41 11 -60
3z"/>
<path d="M5652 4551 c-7 -19 25 -41 60 -41 48 0 103 -35 136 -87 17 -26 110
-210 206 -408 127 -259 176 -369 176 -395 0 -55 -68 -574 -79 -603 -11 -28
-64 -67 -92 -67 -8 0 -24 -6 -34 -14 -15 -11 -17 -17 -8 -27 9 -11 61 -14 255
-14 218 1 243 3 246 17 3 13 -11 21 -55 34 -101 29 -123 56 -123 147 0 69 56
511 71 556 6 20 37 72 69 116 31 44 148 216 260 383 112 167 216 313 232 325
16 12 48 29 71 37 29 11 42 21 42 35 0 18 -10 19 -224 19 -171 1 -225 -2 -228
-12 -9 -23 18 -42 62 -42 58 0 95 -30 95 -76 0 -47 -29 -100 -171 -321 -161
-251 -229 -344 -247 -341 -20 4 -280 565 -295 636 -11 53 -11 55 16 78 16 13
38 24 50 24 31 0 50 15 45 36 -3 17 -20 18 -267 18 -217 1 -264 -1 -269 -13z"/>
<path d="M11597 4551 c-14 -16 15 -41 47 -41 34 0 81 -35 99 -72 9 -19 100
-358 202 -754 102 -395 192 -738 201 -761 17 -46 32 -53 56 -25 22 24 155 252
283 485 60 108 112 194 115 190 4 -5 19 -53 34 -108 54 -199 168 -560 182
-575 12 -13 16 -12 33 5 53 53 305 514 559 1020 271 539 296 577 386 592 42 7
64 27 48 46 -8 9 -67 12 -239 11 -211 -1 -228 -2 -231 -19 -5 -23 14 -35 58
-35 46 0 98 -32 106 -66 10 -39 -4 -76 -136 -354 -132 -278 -274 -557 -381
-746 -80 -141 -103 -173 -117 -159 -18 18 -182 573 -182 614 0 26 324 623 360
662 20 22 52 44 75 51 29 9 40 19 40 32 0 19 -9 20 -215 20 -211 0 -215 0
-218 -21 -3 -22 4 -26 70 -37 44 -8 78 -46 78 -87 0 -16 -11 -57 -24 -92 -23
-62 -196 -401 -201 -395 -2 2 -26 93 -55 203 -76 288 -73 343 18 382 22 9 32
20 30 30 -3 15 -27 17 -231 17 -167 1 -231 -2 -239 -11 -16 -19 0 -32 45 -39
58 -9 117 -71 141 -146 9 -31 53 -194 96 -361 l78 -305 -90 -164 c-143 -262
-198 -357 -208 -363 -6 -4 -14 5 -20 20 -5 14 -74 274 -151 578 -160 621 -167
668 -116 713 15 13 39 24 52 24 30 0 60 29 46 43 -6 6 -99 10 -241 11 -184 1
-234 -2 -243 -13z"/>
<path d="M15194 4044 c-45 -61 -133 -137 -196 -170 -15 -8 -31 -22 -36 -32
-17 -32 -3 -42 59 -42 43 0 61 -4 65 -15 3 -8 -10 -146 -30 -307 -50 -408 -48
-460 24 -541 36 -41 40 -42 97 -42 45 1 73 8 118 30 72 37 163 118 182 163 23
55 -6 71 -48 26 -36 -40 -120 -84 -157 -84 -46 0 -97 51 -106 106 -5 26 6 150
29 340 32 261 39 301 57 316 17 16 33 17 117 12 118 -8 144 1 139 49 l-3 32
-125 5 c-145 6 -142 2 -116 114 21 89 20 106 -3 106 -11 0 -37 -25 -67 -66z"/>
<path d="M14612 3948 c-17 -24 -42 -54 -56 -67 l-26 -24 -62 19 c-38 11 -93
19 -139 19 -67 0 -83 -4 -154 -39 -219 -108 -415 -441 -415 -704 0 -97 15
-143 62 -197 60 -68 134 -81 249 -45 85 26 158 76 250 172 l76 79 7 -49 c11
-84 36 -166 58 -189 43 -46 112 -19 205 80 67 72 103 137 103 186 0 48 -29 37
-62 -24 -29 -54 -89 -115 -113 -115 -8 0 -22 11 -31 25 -37 57 -4 406 71 744
19 85 32 158 29 163 -10 16 -23 7 -52 -34z m-185 -128 c65 -29 69 -47 38 -178
-14 -62 -34 -165 -45 -230 -13 -71 -31 -138 -47 -172 -31 -65 -140 -178 -198
-205 -59 -28 -142 -31 -185 -7 -58 32 -75 73 -74 177 0 102 18 175 74 307 107
251 286 377 437 308z"/>
<path d="M7439 3881 c-149 -48 -306 -226 -376 -426 -24 -71 -27 -94 -28 -210
0 -145 12 -187 74 -258 125 -141 407 -123 578 38 39 37 53 58 53 78 0 15 -3
27 -6 27 -4 0 -27 -18 -51 -41 -58 -54 -123 -81 -204 -87 -85 -6 -152 16 -212
69 -73 63 -114 176 -101 273 l6 43 89 7 c218 16 390 98 459 219 34 59 41 138
16 185 -47 90 -168 124 -297 83z m148 -75 c18 -21 23 -39 23 -78 0 -146 -152
-265 -362 -285 -78 -7 -77 -8 -52 78 39 130 123 247 214 295 63 34 143 29 177
-10z"/>
<path d="M9433 3885 c-144 -40 -250 -143 -320 -310 -82 -195 -73 -418 22 -548
131 -177 383 -184 561 -15 109 103 173 237 194 401 35 282 -95 474 -328 484
-47 2 -97 -3 -129 -12z m205 -72 c69 -51 95 -135 94 -303 0 -133 -23 -243 -71
-346 -82 -174 -196 -240 -318 -185 -91 42 -128 153 -121 361 4 113 9 148 32
215 66 192 170 291 299 283 37 -3 67 -11 85 -25z"/>
<path d="M10245 3886 c-113 -49 -229 -287 -210 -431 14 -106 61 -170 142 -190
l48 -12 6 -99 c12 -176 68 -272 152 -261 92 13 211 132 312 312 33 58 63 105
67 105 4 0 8 -34 8 -75 0 -183 65 -345 137 -345 89 0 270 161 365 325 147 254
219 647 124 671 -29 7 -61 -8 -81 -39 -13 -20 -12 -29 6 -87 26 -81 28 -200 4
-290 -35 -137 -132 -307 -219 -388 -91 -84 -130 -82 -173 6 -28 56 -28 59 -28
247 0 147 6 229 24 359 23 164 24 169 6 182 -25 19 -80 18 -95 -1 -7 -9 -23
-80 -36 -158 -52 -311 -161 -553 -293 -655 -61 -46 -89 -41 -119 20 -34 67
-39 188 -16 358 47 354 2 504 -131 446z m-5 -191 c10 -12 12 -50 7 -161 -7
-162 -17 -197 -59 -202 -59 -7 -99 81 -83 180 15 85 78 198 111 198 6 0 17 -7
24 -15z"/>
<path d="M16027 3890 c-157 -40 -319 -211 -383 -406 -26 -80 -29 -102 -29
-224 0 -124 2 -139 26 -190 36 -77 71 -115 134 -146 99 -48 245 -43 365 14 65
30 190 149 190 181 0 30 -16 26 -70 -19 -96 -80 -213 -108 -322 -76 -45 13
-65 26 -101 66 -55 61 -76 119 -83 230 -10 153 36 319 116 420 37 47 120 90
172 90 56 0 95 -23 164 -96 67 -71 91 -78 129 -39 31 30 33 82 5 118 -35 44
-122 80 -203 83 -40 2 -89 -1 -110 -6z"/>
<path d="M2524 3591 c-11 -5 -33 -23 -47 -41 l-27 -32 0 -499 0 -499 28 -29
c15 -16 288 -179 607 -362 507 -292 585 -334 622 -334 53 0 94 29 112 82 18
51 8 89 -34 127 -18 17 -272 168 -564 336 l-531 304 0 438 0 438 -33 36 c-34
38 -91 53 -133 35z"/>
<path d="M5550 2635 l0 -45 5980 0 5980 0 0 45 0 45 -5980 0 -5980 0 0 -45z"/>
<path d="M11513 1963 c-18 -7 -16 -76 3 -121 35 -85 117 -132 229 -132 107 0
190 42 223 113 44 93 33 147 -29 147 -49 0 -69 -16 -69 -56 0 -28 -8 -44 -34
-70 -29 -29 -41 -34 -82 -34 -81 0 -134 46 -134 115 0 14 -8 29 -19 35 -20 10
-66 12 -88 3z"/>
<path d="M13120 1940 c-85 -15 -174 -35 -197 -43 -173 -64 -246 -220 -259
-557 -11 -272 47 -430 184 -497 51 -25 68 -28 157 -28 93 0 105 2 167 33 36
18 81 49 99 69 108 124 139 359 68 523 -58 135 -214 200 -369 154 -61 -18 -91
-35 -139 -78 l-33 -31 7 60 c10 86 40 159 81 194 42 37 99 54 274 81 182 28
180 27 180 95 l0 55 -32 -1 c-18 0 -103 -14 -188 -29z m11 -463 c117 -62 149
-327 55 -465 -74 -108 -232 -122 -315 -26 -42 47 -61 120 -68 254 l-6 115 57
53 c98 93 189 115 277 69z"/>
<path d="M7497 1615 c-110 -28 -167 -69 -167 -121 0 -56 18 -59 106 -17 100
48 178 55 248 24 57 -25 76 -63 76 -151 l0 -60 -72 0 c-151 0 -262 -32 -327
-93 -45 -43 -61 -84 -61 -159 1 -112 52 -183 156 -214 97 -29 182 -12 272 56
l52 40 0 -39 c0 -26 5 -41 16 -45 29 -11 81 -6 94 8 9 11 11 90 8 309 l-3 293
-30 60 c-26 50 -38 63 -87 87 -69 36 -189 45 -281 22z m263 -508 c0 -83 0 -83
-37 -119 -53 -50 -93 -68 -153 -68 -64 0 -103 20 -124 64 -40 85 2 166 102
196 15 5 69 9 120 9 l92 1 0 -83z"/>
<path d="M8335 1616 c-66 -21 -101 -43 -144 -92 -76 -86 -110 -235 -90 -394
13 -108 48 -187 106 -241 66 -60 102 -73 213 -73 84 -1 102 3 158 28 75 35 92
56 92 114 0 52 -19 64 -59 35 -60 -45 -109 -63 -171 -63 -119 0 -178 63 -202
215 -14 88 0 202 31 263 64 125 197 143 328 46 52 -40 73 -29 73 38 0 94 -199
167 -335 124z"/>
<path d="M9077 1620 c-153 -39 -244 -154 -267 -337 -22 -171 31 -340 128 -407
73 -50 110 -60 222 -61 99 0 109 2 172 33 116 57 174 146 199 304 25 162 -32
344 -129 411 -20 15 -55 34 -77 43 -47 19 -192 28 -248 14z m166 -111 c112
-31 175 -187 147 -364 -24 -148 -94 -218 -220 -218 -105 -1 -170 44 -204 140
-36 103 -26 258 21 345 48 88 150 127 256 97z"/>
<path d="M10757 1620 c-153 -39 -244 -154 -267 -337 -22 -171 31 -340 128
-407 73 -50 110 -60 222 -61 99 0 109 2 172 33 116 57 174 146 199 304 25 162
-32 344 -129 411 -20 15 -55 34 -77 43 -47 19 -192 28 -248 14z m166 -111
c112 -31 175 -187 147 -364 -24 -148 -94 -218 -220 -218 -105 -1 -170 44 -204
140 -36 103 -26 258 21 345 48 88 150 127 256 97z"/>
<path d="M9815 1613 c-78 -8 -75 8 -75 -388 0 -345 0 -352 21 -371 19 -17 38
-19 193 -19 153 0 177 3 227 23 134 53 194 195 133 314 -17 33 -70 74 -107 84
l-29 7 38 21 c58 32 84 78 84 146 0 95 -51 149 -169 176 -52 13 -222 16 -316
7z m263 -104 c65 -14 97 -47 96 -100 -3 -80 -57 -109 -209 -109 l-105 0 0 104
c0 101 1 105 23 109 44 9 147 7 195 -4z m59 -332 c45 -24 66 -69 60 -124 -11
-97 -110 -137 -284 -117 l-53 7 0 130 0 129 123 -4 c89 -3 131 -9 154 -21z"/>
<path d="M6500 1595 c-20 -24 -8 -306 15 -362 51 -127 241 -170 428 -98 16 7
17 -4 17 -137 0 -99 4 -148 12 -156 16 -16 100 -16 116 0 17 17 17 739 0 756
-7 7 -33 12 -58 12 -25 0 -51 -5 -58 -12 -8 -8 -12 -63 -12 -180 l0 -167 -71
-22 c-86 -26 -176 -23 -210 7 -40 36 -49 75 -49 223 0 155 2 151 -75 151 -26
0 -47 -6 -55 -15z"/>
<path d="M11425 1597 c-3 -6 -4 -181 -3 -387 l3 -375 50 0 50 0 147 200 c82
110 174 236 206 280 l57 81 -3 -269 c-3 -200 -1 -271 8 -282 16 -19 103 -20
119 -1 8 9 11 120 9 387 l-3 374 -50 3 c-42 2 -54 -1 -71 -20 -16 -18 -266
-356 -382 -517 -16 -22 -17 -9 -14 250 2 215 0 274 -10 280 -21 14 -108 11
-113 -4z"/>
<path d="M13503 1603 c-7 -2 -13 -11 -13 -18 0 -17 267 -734 279 -749 5 -7
-12 -64 -44 -146 -38 -96 -50 -139 -43 -147 13 -17 99 -17 121 0 9 6 99 242
202 526 142 394 182 517 174 528 -7 7 -31 13 -60 13 -40 0 -51 -4 -62 -22 -8
-13 -58 -153 -112 -311 -54 -158 -99 -286 -101 -284 -2 1 -51 138 -110 302
-58 165 -111 303 -118 307 -12 9 -94 9 -113 1z"/>
<path d="M14236 1594 c-3 -9 -6 -28 -6 -44 0 -59 2 -60 131 -60 l119 0 0 -324
c0 -358 -4 -336 65 -336 69 0 65 -22 65 336 l0 324 120 0 119 0 7 36 c4 20 2
46 -5 60 l-11 24 -299 0 c-263 0 -300 -2 -305 -16z"/>
<path d="M15005 1597 c-3 -6 -4 -181 -3 -387 l3 -375 50 0 50 0 147 200 c82
110 174 236 206 280 l57 81 -3 -269 c-3 -200 -1 -271 8 -282 16 -19 103 -20
119 -1 8 9 11 120 9 387 l-3 374 -50 3 c-42 2 -54 -1 -71 -20 -16 -18 -266
-356 -382 -517 -16 -22 -17 -9 -14 250 2 215 0 274 -10 280 -21 14 -108 11
-113 -4z"/>
<path d="M15907 1603 c-4 -3 -7 -176 -7 -384 0 -417 -5 -389 65 -389 67 0 65
-5 65 181 l0 169 53 0 c67 -1 128 -28 154 -71 12 -19 42 -86 68 -149 26 -63
52 -118 59 -122 6 -4 35 -8 64 -8 38 0 54 4 58 15 7 17 -86 240 -123 296 -23
35 -80 82 -113 91 -10 3 -5 10 16 21 18 9 47 34 66 56 38 44 131 251 126 278
-2 13 -14 19 -42 21 -73 6 -79 1 -125 -111 -73 -178 -101 -207 -203 -207 l-58
0 0 154 c0 131 -2 155 -16 160 -21 8 -99 8 -107 -1z"/>
<path d="M5994 1286 c-3 -8 -4 -31 -2 -52 l3 -39 190 0 190 0 0 50 0 50 -188
3 c-154 2 -188 0 -193 -12z"/>
<path d="M16604 1286 c-3 -8 -4 -31 -2 -52 l3 -39 190 0 190 0 0 50 0 50 -188
3 c-154 2 -188 0 -193 -12z"/>
</g>
</svg>
